<svg width="300" height="267" viewBox="0 0 300 267" fill="none" xmlns="http://www.w3.org/2000/svg">
<path d="M245.039 86.2125C241.875 85.1438 238.711 84.1344 235.547 83.1844C236.074 80.9875 236.543 78.7907 237.012 76.5938C244.219 41.2063 239.473 12.7656 223.477 3.3844C208.066 -5.58123 182.93 3.74065 157.5 26.1844C154.98 28.3813 152.52 30.6969 150.176 33.0125C148.594 31.4688 146.953 29.925 145.312 28.4407C118.652 4.45315 91.9336 -5.6406 75.9375 3.80002C60.5859 12.825 56.0156 39.6032 62.4609 73.0907C63.1055 76.4157 63.8086 79.6813 64.6289 83.0063C60.8789 84.075 57.1875 85.2625 53.7305 86.5094C22.4414 97.4938 0 114.831 0 132.763C0 151.288 23.9063 169.872 56.4258 181.153C59.0625 182.044 61.6992 182.934 64.3945 183.706C63.5156 187.269 62.7539 190.772 62.0508 194.394C55.8984 227.347 60.7031 253.472 76.0547 262.438C91.875 271.7 118.477 262.2 144.375 239.222C146.426 237.381 148.477 235.481 150.527 233.463C153.105 236.016 155.801 238.45 158.496 240.825C183.574 262.675 208.359 271.522 223.652 262.556C239.473 253.294 244.629 225.209 237.949 191.009C237.422 188.397 236.836 185.725 236.191 182.994C238.066 182.459 239.883 181.866 241.699 181.272C275.508 169.931 300 151.584 300 132.763C300 114.772 276.914 97.3157 245.039 86.2125V86.2125ZM165.762 35.8032C187.559 16.5657 207.891 9.02502 217.148 14.4281C227.051 20.1875 230.859 43.4625 224.648 74.0407C224.238 76.0594 223.828 78.0188 223.301 79.9782C210.293 77.0094 197.109 74.8719 183.867 73.6844C176.25 62.6407 167.93 52.0719 158.906 42.1563C161.191 39.9594 163.418 37.8813 165.762 35.8032V35.8032ZM97.9687 163.578C100.957 168.744 104.004 173.909 107.227 178.956C98.0859 177.947 89.0039 176.463 80.0391 174.503C82.6172 165.953 85.8398 157.106 89.5898 148.081C92.2852 153.306 95.0391 158.472 97.9687 163.578V163.578ZM80.2148 92.15C88.6523 90.25 97.6172 88.7063 106.934 87.5188C103.828 92.4469 100.781 97.4938 97.9102 102.6C95.0391 107.647 92.2266 112.813 89.5898 118.038C85.8984 109.191 82.793 100.522 80.2148 92.15ZM96.2695 133.059C100.137 124.866 104.355 116.85 108.809 108.953C113.262 101.056 118.066 93.3969 123.105 85.8563C131.895 85.2032 140.859 84.8469 150 84.8469C159.141 84.8469 168.164 85.2032 176.895 85.8563C181.875 93.3375 186.621 100.997 191.133 108.834C195.645 116.672 199.863 124.688 203.848 132.822C199.922 141.016 195.703 149.091 191.191 157.047C186.738 164.944 181.992 172.603 177.012 180.203C168.281 180.856 159.199 181.153 150 181.153C140.801 181.153 131.895 180.856 123.281 180.322C118.184 172.781 113.379 165.063 108.867 157.166C104.355 149.269 100.195 141.253 96.2695 133.059ZM202.09 163.459C205.078 158.234 207.891 152.95 210.645 147.606C214.395 156.216 217.676 164.944 220.547 173.909C211.465 175.988 202.266 177.591 193.008 178.659C196.172 173.672 199.16 168.566 202.09 163.459ZM210.527 118.038C207.773 112.813 204.961 107.588 202.031 102.481C199.16 97.4344 196.172 92.4469 193.066 87.5188C202.5 88.7063 211.523 90.3094 219.961 92.2688C217.266 101.056 214.102 109.606 210.527 118.038V118.038ZM150.117 51.2407C156.27 58.0094 162.07 65.1344 167.461 72.4969C155.859 71.9625 144.199 71.9625 132.598 72.4969C138.34 64.8375 144.258 57.7125 150.117 51.2407ZM82.1484 14.8438C91.9922 9.02502 113.848 17.3375 136.875 38C138.34 39.3063 139.805 40.7313 141.328 42.1563C132.246 52.0719 123.867 62.6407 116.191 73.6844C102.949 74.8719 89.8242 76.95 76.8164 79.8594C76.0547 76.8313 75.4102 73.7438 74.7656 70.6563C69.2578 41.9188 72.8906 20.2469 82.1484 14.8438V14.8438ZM67.793 171.356C65.332 170.644 62.9297 169.872 60.5273 169.041C48.0469 165.063 33.8672 158.769 23.6133 150.516C17.6953 146.359 13.7109 139.947 12.5977 132.763C12.5977 121.897 31.1133 108.003 57.832 98.5625C61.1719 97.375 64.5703 96.3063 67.9688 95.2969C71.9531 108.181 76.7578 120.828 82.3242 133.059C76.6992 145.469 71.8359 158.294 67.793 171.356V171.356ZM136.113 229.544C126.445 238.509 115.254 245.634 103.066 250.503C96.5625 253.65 89.0625 253.947 82.3828 251.275C73.0664 245.813 69.1992 224.853 74.4727 196.65C75.1172 193.325 75.8203 190 76.6406 186.734C89.7656 189.584 103.008 191.544 116.426 192.553C124.16 203.656 132.656 214.284 141.738 224.259C139.863 226.1 137.988 227.881 136.113 229.544ZM150.469 215.116C144.492 208.584 138.516 201.341 132.715 193.563C138.34 193.8 144.141 193.919 150 193.919C156.035 193.919 161.953 193.8 167.812 193.503C162.422 201.044 156.621 208.228 150.469 215.116V215.116ZM227.051 232.928C226.523 240.172 223.008 246.941 217.383 251.513C208.066 256.975 188.203 249.85 166.758 231.206C164.297 229.069 161.836 226.753 159.316 224.378C168.281 214.344 176.543 203.716 184.043 192.553C197.461 191.425 210.82 189.347 224.004 186.319C224.59 188.753 225.117 191.188 225.586 193.563C228.457 206.388 228.926 219.747 227.051 232.928V232.928ZM237.715 169.1C236.074 169.634 234.434 170.169 232.734 170.644C228.633 157.7 223.594 145.053 217.793 132.763C223.418 120.65 228.164 108.181 232.148 95.4157C235.195 96.3063 238.125 97.2563 240.938 98.2063C268.242 107.706 287.402 121.838 287.402 132.644C287.402 144.281 266.953 159.303 237.715 169.1ZM150 160.194C164.824 160.194 176.836 148.022 176.836 133C176.836 117.978 164.824 105.806 150 105.806C135.176 105.806 123.164 117.978 123.164 133C123.164 148.022 135.176 160.194 150 160.194Z" fill="#61DAFB"/>
</svg>
