<svg width="130" height="110" viewBox="0 0 130 110" fill="none" xmlns="http://www.w3.org/2000/svg">
<rect width="130" height="110" rx="15" fill="#3A302D"/>
<path d="M62.368 27.174C62.0947 27.1193 61.8213 27.092 61.548 27.092C61.2747 27.092 61.0013 27.092 60.728 27.092H59.252C57.9947 27.092 56.874 27.1193 55.89 27.174C54.9607 27.174 54.1953 27.174 53.594 27.174H52.774H51.708L51.216 27.42C50.7787 32.3947 50.478 37.3147 50.314 42.18C50.15 47.0453 49.822 51.9653 49.33 56.94C49.2207 56.448 49.084 56.0107 48.92 55.628C48.756 55.1907 48.592 54.7807 48.428 54.398L47.526 52.184C47.4167 51.856 47.2527 51.3913 47.034 50.79C46.8153 50.134 46.5967 49.478 46.378 48.822C46.1593 48.166 45.9407 47.592 45.722 47.1C45.558 46.608 45.4213 46.362 45.312 46.362C45.0933 47.4007 44.8747 48.3573 44.656 49.232C44.4373 50.052 44.2187 50.872 44 51.692C43.836 52.4573 43.6173 53.2773 43.344 54.152C43.1253 54.972 42.8793 55.874 42.606 56.858C42.114 54.1247 41.7313 51.528 41.458 49.068C41.2393 46.5533 41.048 44.0933 40.884 41.688C40.72 39.2827 40.556 36.9047 40.392 34.554C40.2827 32.2033 40.1187 29.7707 39.9 27.256L39.654 27.01C39.49 27.01 39.326 27.01 39.162 27.01C38.998 26.9553 38.834 26.928 38.67 26.928C38.1233 26.928 37.5767 26.9827 37.03 27.092C36.538 27.1467 36.0187 27.174 35.472 27.174C35.1987 27.174 34.9527 27.174 34.734 27.174C34.57 27.1193 34.3513 27.0647 34.078 27.01H29.568C29.3493 27.01 29.158 27.0373 28.994 27.092C28.83 27.092 28.6387 27.1193 28.42 27.174L27.846 27.994C27.9553 30.3447 28.1193 32.7227 28.338 35.128C28.5567 37.4787 28.748 39.884 28.912 42.344L30.962 61.286C31.29 65.058 31.8367 68.748 32.602 72.356C33.3673 75.964 33.8593 79.654 34.078 83.426C34.3513 83.6993 34.898 83.8907 35.718 84C37.0847 83.836 38.178 83.754 38.998 83.754C39.5993 83.754 39.9547 83.7813 40.064 83.836C40.4467 83.836 40.7747 83.7813 41.048 83.672C41.3213 83.508 41.458 83.2073 41.458 82.77C42.3327 81.3487 43.0433 79.8727 43.59 78.342C44.1913 76.8113 44.9293 75.3353 45.804 73.914C46.7333 75.39 47.4987 76.948 48.1 78.588C48.756 80.1733 49.3847 81.786 49.986 83.426L50.15 83.344C50.2593 83.4533 50.3413 83.508 50.396 83.508C50.4507 83.508 50.478 83.5627 50.478 83.672H55.89C56.1087 83.672 56.3 83.6993 56.464 83.754C56.628 83.8087 56.7647 83.836 56.874 83.836C57.038 83.836 57.1747 83.754 57.284 83.59C57.448 80.4193 57.6393 77.2213 57.858 73.996C58.1313 70.716 58.4867 67.518 58.924 64.402L61.384 38.9L61.63 38.49C61.7393 36.9047 61.8487 35.4013 61.958 33.98C62.122 32.5587 62.2313 30.9187 62.286 29.06C62.286 28.7867 62.3407 28.568 62.45 28.404C62.5593 28.1853 62.614 27.9667 62.614 27.748C62.614 27.5293 62.532 27.338 62.368 27.174ZM60.318 37.916C59.9353 42.7267 59.416 47.428 58.76 52.02C58.104 56.612 57.5027 61.2313 56.956 65.878L57.038 68.01C56.6553 68.3927 56.464 68.748 56.464 69.076C56.464 69.6227 56.4913 70.388 56.546 71.372C56.6553 72.3013 56.71 73.2307 56.71 74.16C56.71 74.7067 56.6827 75.4173 56.628 76.292C56.5733 77.1667 56.464 78.0413 56.3 78.916C56.1907 79.736 56.0267 80.4467 55.808 81.048C55.5893 81.6493 55.316 81.95 54.988 81.95C54.6053 81.95 54.1953 81.8953 53.758 81.786C53.3753 81.622 52.9107 81.54 52.364 81.54C52.2 81.54 52.036 81.5673 51.872 81.622C51.7627 81.622 51.6533 81.622 51.544 81.622C51.052 81.622 50.6693 81.4853 50.396 81.212C50.1227 80.884 49.904 80.5287 49.74 80.146C49.576 79.7087 49.412 79.2713 49.248 78.834C49.1387 78.342 48.9473 77.932 48.674 77.604C48.51 77.112 48.3187 76.4287 48.1 75.554C47.8813 74.6793 47.6353 73.8047 47.362 72.93C47.0887 72.0553 46.7607 71.3173 46.378 70.716C46.05 70.06 45.6673 69.732 45.23 69.732C44.7927 70.6613 44.3827 71.6727 44 72.766C43.6173 73.8593 43.2347 74.98 42.852 76.128C42.4693 77.276 42.0593 78.3967 41.622 79.49C41.2393 80.5833 40.8293 81.5673 40.392 82.442L39.654 82.032L36.21 82.114C35.882 80.0913 35.4447 78.096 34.898 76.128C34.3513 74.16 33.996 72.192 33.832 70.224L33.012 65.714C33.012 64.9487 32.9847 64.3747 32.93 63.992C32.8753 63.6093 32.8207 63.336 32.766 63.172C32.7113 63.008 32.6567 62.926 32.602 62.926C32.5473 62.8713 32.52 62.7893 32.52 62.68L32.602 61.86C32.7113 61.86 32.766 61.7507 32.766 61.532C32.766 61.4227 32.7387 61.3407 32.684 61.286V59.236C32.1373 54.4253 31.7 49.642 31.372 44.886C31.0987 40.0753 30.634 35.2647 29.978 30.454C29.9233 30.3993 29.896 30.2353 29.896 29.962C29.896 29.7433 29.896 29.5793 29.896 29.47C29.9507 29.306 29.978 29.142 29.978 28.978V28.732C30.4153 28.6227 30.716 28.568 30.88 28.568C31.1533 28.568 31.8367 28.65 32.93 28.814C33.258 28.814 33.6133 28.7047 33.996 28.486L35.226 28.404V28.568C35.6633 28.8413 36.128 29.0053 36.62 29.06C37.112 29.06 37.604 29.1147 38.096 29.224C38.6973 34.0347 39.1347 38.9 39.408 43.82C39.736 48.74 40.228 53.5233 40.884 58.17C40.9933 58.9353 41.13 59.6733 41.294 60.384C41.5127 61.0947 41.8407 61.7507 42.278 62.352C42.8247 61.5867 43.2073 60.7667 43.426 59.892C43.6993 58.9627 43.918 58.006 44.082 57.022C44.3007 56.038 44.492 55.0267 44.656 53.988C44.8747 52.8947 45.1753 51.8013 45.558 50.708C45.9407 51.692 46.2687 52.8127 46.542 54.07C46.8153 55.2727 47.0887 56.448 47.362 57.596C47.69 58.6893 48.018 59.7007 48.346 60.63C48.7287 61.5047 49.1933 62.106 49.74 62.434C49.9587 62.1607 50.15 61.7507 50.314 61.204C50.478 60.6027 50.6147 60.0013 50.724 59.4C50.8333 58.7987 50.9153 58.252 50.97 57.76C51.0247 57.2133 51.052 56.858 51.052 56.694C51.052 56.4207 51.0247 56.1747 50.97 55.956C50.97 55.6827 50.97 55.4093 50.97 55.136C50.97 54.4253 51.0793 53.8787 51.298 53.496C51.0247 52.7853 50.888 52.1567 50.888 51.61C50.888 51.2273 50.97 51.0633 51.134 51.118C51.298 51.118 51.38 50.8993 51.38 50.462C51.38 49.314 51.2433 48.658 50.97 48.494C51.0247 48.494 51.0793 48.5213 51.134 48.576C51.0793 48.1387 51.052 47.8107 51.052 47.592C51.052 47.3733 51.052 47.2367 51.052 47.182C51.052 46.5807 51.1613 45.952 51.38 45.296C51.5987 44.64 51.708 43.9293 51.708 43.164C51.544 43.2187 51.38 43.328 51.216 43.492C51.216 43.2187 51.1887 42.9727 51.134 42.754C51.0793 42.4807 51.052 42.2347 51.052 42.016C51.052 41.852 51.0793 41.688 51.134 41.524C51.1887 41.36 51.2433 41.114 51.298 40.786C51.4073 40.458 51.5167 40.0207 51.626 39.474C51.7353 38.8727 51.8447 38.08 51.954 37.096C51.954 36.5493 52.0633 35.9753 52.282 35.374C52.282 35.866 52.2273 36.3853 52.118 36.932C52.0087 37.424 51.954 37.9433 51.954 38.49C51.954 38.8727 51.9813 39.0913 52.036 39.146C52.2547 39.0367 52.446 38.5993 52.61 37.834C52.774 37.014 52.9107 36.0847 53.02 35.046C53.1293 34.0073 53.2387 32.9413 53.348 31.848C53.4573 30.7547 53.5667 29.88 53.676 29.224C54.824 29.0053 55.9993 28.8687 57.202 28.814C58.4593 28.7593 59.662 28.65 60.81 28.486C60.8647 28.65 60.892 29.0053 60.892 29.552V30.536C60.892 31.7933 60.81 33.0233 60.646 34.226C60.5367 35.4287 60.4273 36.6587 60.318 37.916Z" fill="#CBCBCB"/>
<path d="M96.8772 30.536C95.4558 29.1693 93.7885 28.2127 91.8752 27.666C89.9618 27.0647 87.9938 26.764 85.9712 26.764C83.0738 26.764 80.1492 27.3107 77.1972 28.404C74.2452 29.4427 71.8125 30.8913 69.8992 32.75C68.5325 34.4993 67.5485 36.4127 66.9472 38.49C66.4005 40.5127 66.1272 42.672 66.1272 44.968C66.1272 46.444 66.2912 47.8927 66.6192 49.314C66.9472 50.6807 67.4665 51.9927 68.1772 53.25C68.8878 54.4527 69.7625 55.546 70.8012 56.53C71.8945 57.4593 73.1518 58.1973 74.5732 58.744C75.7212 59.1813 76.9512 59.5093 78.2632 59.728C79.6298 59.9467 80.9418 60.22 82.1992 60.548C83.4565 60.876 84.6318 61.368 85.7252 62.024C86.8732 62.6253 87.8025 63.5547 88.5132 64.812C88.8412 65.304 89.0052 65.796 89.0052 66.288C89.0052 68.0373 88.4858 69.4587 87.4472 70.552C86.4085 71.5907 85.0692 72.11 83.4292 72.11C81.5705 72.11 80.0672 71.29 78.9192 69.65C78.6458 69.4313 78.4545 69.158 78.3452 68.83C78.2905 68.502 78.2085 68.174 78.0992 67.846C78.0445 67.4633 77.9352 67.1353 77.7712 66.862C77.6072 66.5887 77.3338 66.3973 76.9512 66.288C76.1858 66.3973 75.3932 66.4793 74.5732 66.534C73.8078 66.5887 73.0425 66.616 72.2772 66.616C71.1292 66.616 69.9538 66.5887 68.7512 66.534C67.6032 66.4793 66.4278 66.3973 65.2252 66.288L64.7332 66.698C64.8425 68.4473 65.0612 70.142 65.3892 71.782C65.7718 73.422 66.4005 74.9527 67.2752 76.374C67.7125 76.866 68.1225 77.44 68.5052 78.096C68.9425 78.6973 69.3525 79.2987 69.7352 79.9C70.1725 80.5013 70.6372 81.048 71.1292 81.54C71.6758 82.032 72.3045 82.3873 73.0152 82.606C74.8192 83.0433 76.4865 83.3987 78.0172 83.672C79.5478 83.8907 81.2425 84 83.1012 84H84.0032C84.4952 84 84.8232 83.9727 84.9872 83.918C85.0418 83.9727 85.2058 84 85.4792 84C85.8072 84 86.1625 83.9727 86.5452 83.918C86.9825 83.8087 87.3652 83.754 87.6932 83.754H88.0212C89.1692 82.934 90.2898 82.278 91.3832 81.786L93.1052 81.048C93.3785 80.9387 93.6792 80.802 94.0072 80.638C94.3352 80.4193 94.6632 80.2007 94.9912 79.982H95.8932C95.6198 80.4193 95.2645 80.7747 94.8272 81.048C94.3898 81.2667 94.0345 81.5673 93.7612 81.95C96.5492 80.638 98.5992 78.6427 99.9112 75.964C101.278 73.2853 101.961 70.306 101.961 67.026C101.961 64.402 101.633 62.2153 100.977 60.466C100.376 58.7167 99.5285 57.2407 98.4352 56.038C97.3418 54.8353 96.0572 53.7967 94.5812 52.922C93.1598 51.9927 91.6292 51.036 89.9892 50.052C89.2238 49.6147 88.2125 49.3413 86.9552 49.232C85.7525 49.068 84.5772 48.8493 83.4292 48.576C82.2812 48.3027 81.2698 47.838 80.3952 47.182C79.5752 46.526 79.1652 45.46 79.1652 43.984C79.1652 43.0547 79.3838 42.2073 79.8212 41.442C80.2585 40.6767 81.0512 40.212 82.1992 40.048L81.8712 39.884C82.0898 39.6653 82.4725 39.5287 83.0192 39.474C83.5658 39.4193 84.0578 39.392 84.4952 39.392C85.7525 39.392 86.9552 39.802 88.1032 40.622C89.2512 41.442 89.8252 42.5627 89.8252 43.984C89.8252 44.3667 89.7158 44.6673 89.4972 44.886C89.9345 45.214 90.5085 45.4327 91.2192 45.542C91.9845 45.5967 92.7772 45.624 93.5972 45.624C95.1825 45.624 96.7132 45.624 98.1892 45.624C99.7198 45.5693 101.196 45.3507 102.617 44.968C102.672 44.5307 102.699 44.148 102.699 43.82C102.754 43.4373 102.781 43.0273 102.781 42.59C102.781 40.2393 102.317 38.0253 101.387 35.948C100.458 33.8707 98.9545 32.0667 96.8772 30.536ZM99.5832 44.23C99.4738 44.23 99.3918 44.2573 99.3372 44.312H99.2552C98.9818 44.312 98.7085 44.2573 98.4352 44.148C98.1618 44.0387 97.8885 43.984 97.6152 43.984C97.0685 43.984 96.4672 44.066 95.8112 44.23C95.1552 44.3393 94.5265 44.394 93.9252 44.394C92.9412 44.394 92.0938 44.312 91.3832 44.148C91.1645 43.328 90.8365 42.508 90.3992 41.688C89.9618 40.868 89.4152 40.1573 88.7592 39.556C88.1032 38.9 87.3378 38.3807 86.4632 37.998C85.6432 37.5607 84.7138 37.342 83.6752 37.342C82.5818 37.342 81.6798 37.5607 80.9692 37.998C80.2585 38.3807 79.6845 38.9 79.2472 39.556C78.8645 40.1573 78.5912 40.868 78.4272 41.688C78.2632 42.4533 78.1812 43.1913 78.1812 43.902C78.1812 44.8313 78.3178 45.8153 78.5912 46.854C78.8645 47.8927 79.5205 48.658 80.5592 49.15L88.5132 52.512C90.0438 53.168 91.5198 53.824 92.9412 54.48C94.3625 55.136 95.5925 55.956 96.6312 56.94C97.7245 57.924 98.5718 59.1267 99.1732 60.548C99.8292 61.9693 100.157 63.7733 100.157 65.96C100.157 67.3267 99.9932 68.666 99.6652 69.978C99.3918 71.2353 99.0092 72.4107 98.5172 73.504C96.7678 75.8547 94.6905 77.9047 92.2852 79.654C89.8798 81.4033 87.1465 82.278 84.0852 82.278C83.4292 82.278 82.8278 82.196 82.2812 82.032C81.7345 81.8133 81.2152 81.704 80.7232 81.704H80.3132C79.9305 81.704 79.6572 81.622 79.4932 81.458C79.2745 81.6767 78.9738 81.786 78.5912 81.786C77.6618 81.786 76.6505 81.5673 75.5572 81.13C74.5185 80.6927 73.5072 80.146 72.5232 79.49C71.5392 78.7793 70.6645 77.9867 69.8992 77.112C69.1338 76.1827 68.5872 75.226 68.2592 74.242C68.1498 74.242 68.0132 74.0233 67.8492 73.586C67.6852 73.1487 67.5212 72.6293 67.3572 72.028C67.2478 71.4267 67.1385 70.798 67.0292 70.142C66.9198 69.486 66.8378 68.9393 66.7832 68.502C66.8925 68.5567 67.1112 68.584 67.4392 68.584H68.1772C69.2158 68.584 70.2272 68.502 71.2112 68.338C72.2498 68.174 73.3158 68.092 74.4092 68.092C75.4478 68.092 76.2952 68.2013 76.9512 68.42C77.2792 68.912 77.6072 69.4313 77.9352 69.978C78.2632 70.5247 78.6458 71.044 79.0832 71.536C79.5752 71.9733 80.1492 72.3287 80.8052 72.602C81.4612 72.8753 82.2812 73.012 83.2652 73.012C84.2492 73.012 85.1785 72.8207 86.0532 72.438C86.9278 72.0553 87.6932 71.5633 88.3492 70.962C89.0052 70.306 89.5245 69.5953 89.9072 68.83C90.2898 68.01 90.4812 67.19 90.4812 66.37C90.4812 65.6593 90.3172 64.976 89.9892 64.32C89.1145 62.8987 88.0485 61.8053 86.7912 61.04C85.5338 60.22 84.1672 59.564 82.6912 59.072C81.2698 58.58 79.7938 58.1973 78.2632 57.924C76.7325 57.596 75.2292 57.2133 73.7532 56.776C73.4798 56.6667 73.2065 56.4753 72.9332 56.202C72.7145 55.9287 72.6052 55.6553 72.6052 55.382C71.0745 54.1247 69.8718 52.7033 68.9972 51.118C68.1225 49.5327 67.6852 47.8653 67.6852 46.116C67.6852 45.0227 67.7125 44.2847 67.7672 43.902C67.8218 43.5193 68.0132 42.8633 68.3412 41.934C68.7238 40.8953 69.1612 39.638 69.6532 38.162C70.1452 36.6313 71.0198 35.292 72.2772 34.144L72.1132 33.652C71.8398 33.816 71.5118 34.062 71.1292 34.39C70.8012 34.718 70.6372 34.964 70.6372 35.128C70.6372 34.964 70.7465 34.6907 70.9652 34.308C71.2385 33.8707 71.5665 33.4333 71.9492 32.996C72.3318 32.5587 72.7418 32.1487 73.1792 31.766C73.6712 31.3833 74.1358 31.1373 74.5732 31.028C74.2452 31.4653 73.8352 31.7933 73.3432 32.012C72.9058 32.176 72.6872 32.3673 72.6872 32.586C72.6872 32.6953 72.7418 32.75 72.8512 32.75C73.0698 32.75 73.3705 32.5313 73.7532 32.094C74.1358 31.602 74.6278 31.356 75.2292 31.356C76.0492 30.536 77.3612 29.88 79.1652 29.388C80.9692 28.896 82.7185 28.65 84.4132 28.65H85.3152C85.4792 28.65 85.7798 28.7047 86.2172 28.814C87.6385 29.2513 89.1145 29.7707 90.6452 30.372C92.1758 30.9733 93.5972 31.7113 94.9092 32.586C96.2212 33.4607 97.3692 34.5267 98.3532 35.784C99.3372 36.9867 99.9658 38.408 100.239 40.048C100.349 40.8133 100.376 41.4967 100.321 42.098C100.321 42.6447 100.349 43.2187 100.403 43.82L99.5832 44.23Z" fill="#E9984F"/>
</svg>
